# xmcd
#
# Track frame offsets:
#	150
#	18192
#	31077
#	49152
#	68352
#	89584
#	108861
#	127416
#	144158
#	166990
#	183005
#	200792
#	218597
#	237797
#	251189
#	268531
#	280336
#	295988
#	310440
#
# Disc length: 4367 seconds
#
# Revision: 3
# Processed by: cddbd v1.5.2PL0 Copyright (c) Steve Scherf et al.
# Submitted via: EasyCDDAExtractor 15.3.0.1
#
DISCID=14110d13
DTITLE=Cher - The Greatest Hits
DYEAR=1999
DGENRE=Pop/Rock
TTITLE0=Believe
TTITLE1=The Shoop Shoop Song (It's In His Kiss)
TTITLE2=If I Could Turn Back Time
TTITLE3=Heart Of Stone
TTITLE4=Love And Understanding
TTITLE5=Love Hurts
TTITLE6=Just Like Jesse James
TTITLE7=I Found Someone
TTITLE8=One By One
TTITLE9=Strong Enough
TTITLE10=All Or Nothing
TTITLE11=Walking In Memphis
TTITLE12=Love Can Build A Bridge
TTITLE13=All I Really Want To Do
TTITLE14=Bang Bang
TTITLE15=Gypsys, Tramps and Thieves
TTITLE16=The Beat Goes On
TTITLE17=I Got You Babe
TTITLE18=Dov'e L'amore (Emilio Estefan Jnr. Mix)
EXTD=
EXTT0=
EXTT1=
EXTT2=
EXTT3=
EXTT4=
EXTT5=
EXTT6=
EXTT7=
EXTT8=
EXTT9=
EXTT10=
EXTT11=
EXTT12=
EXTT13=
EXTT14=
EXTT15=
EXTT16=
EXTT17=
EXTT18=
PLAYORDER=
